/* XPM */
static char *fb5f75668dd248bf8547257b1b6484aczcM4BoLbrIzzksqY[] = {
/* columns rows colors chars-per-pixel */
"32 32 13 1 ",
"  c black",
". c gray8",
"X c #253000",
"o c #282828",
"O c #2D2D2D",
"+ c #323232",
"@ c #43501A",
"# c #516534",
"$ c #434343",
"% c #6D6D6D",
"& c gray71",
"* c gray79",
"= c #F8F8F8",
/* pixels */
"################################",
"################################",
"#############################X##",
"########################X###X###",
"#########################X##X###",
"#######################@#X#@X###",
"###X####X###############@X#@X###",
"###X###X#################@@@@###",
"####X##X#@######################",
"##@@X##X@#######################",
"###$$$#X@#################$$$###",
"##$===$@@##############X#$===$##",
"#$%&&&=$##########X###X#$=&&&%O#",
"#$%&*&&=$$$$$$$$$$$$$$$$=&&*&%O#",
"#$$%&*&&================&&*&%+O#",
"## +&&&&&&&&&&&&&&&&&&&&&&&&+.##",
"###o&&&&&&&&&&&&&&&&&&&&&&&&.###",
"## %&*&&%%%%%%%%%%%%%%%%&&**%.##",
"#.$%*&&%$$$$$$$$$$$$$$$$%&**%+.#",
"#.$%%&%$................$%&%%+.#",
"#.$%%%$.#X##X###########.$%%%+.#",
"##.$$$.@#X#@X############.$$$.##",
"###...##@X#@X#############...###",
"#########@@@@########X##########",
"######################X#########",
"####################@#X##X######",
"#####################@X#X#@#####",
"#######X#############@@@@@######",
"##X###X#@#######################",
"#@#X##X@########################",
"##@@@@@@########################",
"################################"
};
