/* XPM */
static char *_cf9ad8dcab742c8f3568717866b951at4kTUbUnngLE9Yo8[] = {
/* columns rows colors chars-per-pixel */
"32 32 9 1 ",
"  c #001600",
". c #061E00",
"X c #253000",
"o c #3B4508",
"O c #4D5C25",
"+ c #5E6C2E",
"@ c #516534",
"# c #8B9E44",
"$ c #949642",
/* pixels */
"@@@@@@@@@@@@@@@@@@@@@@@@@@@@@@@@",
"@@@@@@@@@@@@@@@@@@@@@@@@@@@@@@@@",
"@@@@@@@@@@@@XXXXXXXX@@@@@@@@@@@@",
"@@@@@@@@@XXXOOOOOO##.XX.@@@@@@@@",
"@@@@@@@@X#OO$++++O+##OOX@@@@@@@@",
"@@@@@..X#OO+++O+++++OOOoXX@@@@@@",
"@@@@@Xo#OO+O+OO+#+O+++OOOoX.@@@@",
"@@@@XoOOO+O#+++++OO++#+OOOoX@@@@",
"@@@@.oOOO+#++O++O+O+#O+OoOOX@@@@",
"@@@XoooOO#++OO+++++OO#+OOoOoX@@@",
"@@X.++ooOO+OO+O++OO+OOOooOOOoX@@",
"@@XoOOOoooOOO++o##O+OOOo+OoooX@@",
"@XXOOOoOOOOO+++OO+++OOoOoooOOX@@",
"@XXO+ooOOooOOOoOOoOOOOOOooOOOoX@",
"@@XXo+OOOOoOOooOOoOooooOoo++OoX@",
"@@XXOOOooOOooOoooooooOoo++ooOoX@",
"@XXoOOOoooooo+OOoOOoOOOoOOOoooX@",
"@ oo+++oooo++OoOOooO+ooOooOOoX @",
"@ ooXooooOooOOooOOOoOooOo+ooX@@@",
"@ oooooOOOOo+Ooo+OOoo++O+oooXX@@",
"@@.oooo+OoOOoo++OoooooOO+oXoo.@@",
"@@.ooXoo+OOOoOooOOOOooo+ooooo.@@",
"@@.oooXooooOoooO++OOOooXooooo.@@",
"@@@.XoXXoooooooXX++XooooXooo.@@@",
"@@@@.XooXXooooXXXoooXoooXXo.@@@@",
"@@@@.XXXXXooXoXXooooXXXXXXX.@@@@",
"@@@@@.XXXXXXXXXXXXXXXXXXXX.@@@@@",
"@@@@@@.XXXXXXXXXXXXXXXXXX.@@@@@@",
"@@@@@@@@XXXXXXXXXXXXXXXX@@@@@@@@",
"@@@@@@@@@@@@@@@@@@@@@@@@@@@@@@@@",
"@@@@@@@@@@@@@@@@@@@@@@@@@@@@@@@@",
"@@@@@@@@@@@@@@@@@@@@@@@@@@@@@@@@"
};
