/* XPM */
static char *a1801e06cdfd485c9239b184bb4320745ivb9FdOzELTyIRy[] = {
/* columns rows colors chars-per-pixel */
"32 32 17 1 ",
"  c None",
". c black",
"X c #010101",
"o c #4F270A",
"O c #613413",
"+ c #73411C",
"@ c #E3353A",
"# c #A05A31",
"$ c #C79059",
"% c #E19652",
"& c #3083BF",
"* c #F2BC8A",
"= c #E9DBBE",
"- c #FADCBF",
"; c #FFE2C6",
": c #F8E8D4",
"> c white",
/* pixels */
"                                ",
"           XXXXXXXXXX           ",
"         XX##########XX         ",
"        X##############X        ",
"       X################X       ",
"       X##+XXXX#%XXXX#+#X       ",
"       X#++X::X##X::X++#X       ",
"      X#+X+X:&X##X&:X+X+#X      ",
"      X#+X+X::X$#X::X+X+#X      ",
"      X#+X+XXXXooXXXX+X+#X      ",
"      X#+XX==X>XXXX==XX+#X      ",
"      X#+X-;-X>XXXX---X+#X      ",
"      X++X---XXXXXX---X++X      ",
"       XXX*----------*XXX       ",
"          X**------**X          ",
"           XX@@****XX           ",
"          X+o@@XXXXooX          ",
"         X#++@@oooo++#X         ",
"         X##%++++++%##X         ",
"         X###%####%###X         ",
"         X######%#####X         ",
"         X#####%%#####X         ",
"        XX###X#%%#####XX        ",
"       XOXX##X+%%#X##XXoX       ",
"      XOOOX##X+%#+X##XoooX      ",
"      XOOoX##X++++X##XoooX      ",
"      XOooX##Xo+++X##XoooX      ",
"       XXoX##XooooX##XoXX       ",
"        XoX##XXXXXX##XoX        ",
"        XXX++X    X++XXX        ",
"           XX      XX           ",
"                                "
};
