/* XPM */
static char *e210515fe7a84e14aa51c480cb7dccfagzIKiOtfa2r7Rq1f[] = {
/* columns rows colors chars-per-pixel */
"32 32 15 1 ",
"  c black",
". c #253000",
"X c #472020",
"o c #613030",
"O c #753A3A",
"+ c #43501A",
"@ c #516534",
"# c #734A44",
"$ c #7D5450",
"% c #844344",
"& c #8C5E50",
"* c #A15455",
"= c #A66D4C",
"- c #BA8362",
"; c #B0866C",
/* pixels */
"@@@@@@@@@@@@@ == @@@@@@@@@@@@@@@",
"@@@@@@@@@@@@  =#  @@@@@@@@@@@@@@",
"@@@@@@@@@@@ % == % @@@@@@@@@@.@@",
"@@@@@@@@@@ %O #= %% @@@@.@@@.@@@",
"@@@@@@@@@ %%O ## o%% @@@@.@@.@@@",
"@@@@@@@@ %%oO =# ooO% @+@.@+.@@@",
"@@@.@@@ %%ooO =# o%%O% @+.@+.@@@",
"@@@.@@ %%OOoO == oO%oo% @@@++@@@",
"@@@@  %%OoO%% $= %OO%o%%  @@@@@@",
"@@+ %%o%OoO%o $= %Oo%o%%%% @@@@@",
"@@ %%Oo%oo%oo == %Oo%oo%oO% @@@@",
"@@ %%Oo%%OoOo ;; %%oo%oOoo% @@@@",
"@@ %%o%o%O%%* == *%%%OoOoO% @@@@",
"@@ %oO%OoO%*oo  oo*%OOo%%%% @@@@",
"@@ %oO%Oo%*oo == oo*%OooO%% @@@@",
"@@ %%%%%%*oo =--= oo*%%%Oo% @@@@",
"@@ %%o%%*oo ###&&& oo*%%o%% @@@@",
"@@ %oO%*oo =-=-=--= oo*%oO% @@@@",
"@@ %o%*oo =--====--= oo*%O% @@@@",
"@@ %%*oo ##&&&###&&&# oo*O% @@@@",
"@@ **oo ======--===--= oo** @@@@",
"@@@ oo =-====-=-===---= oo @@@@@",
"@@@@  &&&###&&&&#&&##&&&  @@@@@@",
"@@@@@ --==--=oooo-==--=- +@@@@@@",
"@@@@@ ---==-oooooo-=-=-- ++@@@@@",
"@@@@@ ##&#&ooXXXXoo&##&& +++@@@@",
"@@@@@ ==-==oXXXXXXo=;;=- ++++@@@",
"@@@@@ -==+=oXXXXXXo=+=.- +.++@@@",
"@@.@@ ##.#&oXXXXXXo+#&+# .++++@@",
"@+@.@ +=+-=oXXXXXXo=.-.= ++++++@",
"@@+++ =.=.=oXXXXXXo-=+=. ++++++@",
"@@@@@@+++++++++++++++++++++++++@"
};
