/* XPM */
static char *e3afd64acc314913c76c3610685d0848wrjk9Kxa7PDe8xv0[] = {
/* columns rows colors chars-per-pixel */
"32 32 101 2 ",
"   c black",
".  c #030403",
"X  c #030504",
"o  c #040504",
"O  c #050706",
"+  c #040C07",
"@  c #070A08",
"#  c #0E1510",
"$  c #0E1511",
"%  c #0F1511",
"&  c #101813",
"*  c #111813",
"=  c #151F18",
"-  c #161F19",
";  c #062110",
":  c #18241C",
">  c #1C2920",
",  c #1D2921",
"<  c #183423",
"1  c #24372B",
"2  c #26362B",
"3  c #25362C",
"4  c #26362C",
"5  c #24382B",
"6  c #25382B",
"7  c #243D2A",
"8  c #25382C",
"9  c #203F2C",
"0  c #243E2E",
"q  c #24402C",
"w  c #234730",
"e  c #234931",
"r  c #234A31",
"t  c #234E32",
"y  c #225534",
"u  c #205B36",
"i  c #205F37",
"p  c #10642F",
"a  c #1D6638",
"s  c #1B6F3A",
"d  c #1E6E3B",
"f  c #1F6D3C",
"g  c #0E7332",
"h  c #0E7734",
"j  c #047D30",
"k  c #057D30",
"l  c #047D31",
"z  c #057D31",
"x  c #097A32",
"c  c #0D7C35",
"v  c #1F713D",
"b  c #1D7A3F",
"n  c #216339",
"m  c #216A38",
"M  c #20713A",
"N  c #058132",
"B  c #058533",
"V  c #078534",
"C  c #068634",
"Z  c #078835",
"A  c #078E38",
"S  c #0C8838",
"D  c #098F3A",
"F  c #0B8E3B",
"G  c #0B943C",
"H  c #09973C",
"J  c #09973D",
"K  c #0A9B3E",
"L  c #1B8F43",
"P  c #179845",
"I  c #169946",
"U  c #199A49",
"Y  c #199A4A",
"T  c #1A9C48",
"R  c #199D4A",
"E  c #199F4B",
"W  c #09A141",
"Q  c #0AA745",
"!  c #17AD4F",
"~  c #18AB4D",
"^  c #18AC4D",
"/  c #0CB44A",
"(  c #0FBC4E",
")  c #0FBC4F",
"_  c #14BB47",
"`  c #13B54E",
"'  c #16BD53",
"]  c #15BE54",
"[  c #10C54F",
"{  c #11D24E",
"}  c #10C653",
"|  c #11C654",
" . c #13CE53",
".. c #14CA57",
"X. c #13CF58",
"o. c #13D052",
"O. c #12D352",
"+. c #13D15A",
"@. c #14D059",
"#. c #14D159",
"$. c #14D15A",
/* pixels */
"z z z z K z z z k z z z z K z z z z z z W x x z z z K x j j j j ",
"z z z | +.+.z } } z z z #.#.| z z z z #.| X.z z z +.j z j j j j ",
"z z H | K K B +.#.#.z #.} Z G H #.x #.H ' X.#.x +.) +.x x l j l ",
"z z K +.+.+.} +.Z B D ' ' #.X.H W N W ' ' W h H K ..W X.l $.l +.",
"z H +.H K +.#.O.' ^ P ~ S g n ^ T P X.W g X.#.| X.W Z W Z W G X.",
"z | H +.+.+.{ _ T ^ n y y T ~ L ~ ~ L n ~ ~ 4 #.m X.X.$.| $.G W ",
"z z K +.X.+.d  . .7 3 e 0 3 8 8 3 0 M L ~ 4 4 4 ..b X.X.| X.X.X.",
"z C K } +.X.+.+.#.6 8 3 , , : , 3 3 3 0 3 3 4 4 Y f ! | | ' W X.",
"z | K X.#.#. .3 t 2 : : : , 3 : = : : 3 m 3 3 3 y ! X.$.W X.$.$.",
"z z W +.#.' 3 3 3 : % # o       = : # : 3 3 3 3 0 L 4 F b X.l $.",
"z C H ` e 8 4 4 , # o       @         * # , 3 8 3 4 e e $.l l x ",
"z | K ' m 4 4 3 :                       : * - 3 3 3 4 Y l l x l ",
"z z c s +.E 4 4 o   #                     * - , 4 4 ~ < E l x z ",
"x W C +.f 3 4 4   X                         * * 4 4 p 3 | $.z $.",
"z z H +.3 3 3 4 @                             > , 4 3 | H K Z $.",
"x X.+.' #.3 3 3 X                             o , 4 w w W +.' $.",
"X.Z h | ' 3 3 o o                               , T 3 p v +.z +.",
"z X.W ' 0 3 3 o ,                               3 8 3 T | j j z ",
"z z Z #.E ~ 3 ;                               O 3 4 4 y j z z z ",
"z X.#.m e ~ 4 3 @ o                           3 3 4 e g s z z z ",
"$.| | $.$.3 Y 4 ; o o o                       O 3 3 p ^ h z z z ",
"$.$.$.$.$.$.3 Y 3 o                     . , O o w 3 ..G z z z z ",
"$.Z W | $.$.#.T 3 3 @                 . , @   + u n #.} +.z z z ",
"z $.g X.#.#.3 8 3 3 r 3 O           , , o   ; 3 r w K +.z z z z ",
"z z W ..X.m v ..n 3 3 3 4 4 < , o       O e e 9 T +.b / A z z z ",
"z $.$.X.$.| ' X.v f Y 3 0 r 3 3 4 4 3 3 3 9 T 3 3 T x W ) C z +.",
"$.Z X.| ' | $.F $.$.| 9 | T p 3 4 q 3 3 9 T 3 p X.' Q C j N H ) ",
"z $.W X.X.W $.$.+.m X.n W X.b X.~ ^ 3 3 w G #.+.$.$.z j +.z j C ",
"l l N W W | X.z $.W X.G +.! z X.g m a #.W m +.j #.N C } z z z z ",
"l l x X.W ..z z l $.W X.$.l j z $.W ' $.f b z j z +.h z z z z z ",
"x z z z W z z z l x W $.l x z z x W $.$.+.z z z z z z z z z z z ",
"z z z X.| X.z z l $.X.| $.l z z #.$.$.$.| #.z z z B B z z z z ) "
};
