/* XPM */
static char *_c0c58ecfaad4defd0b59596e2fe3f76sgnNHYrOcmAKbQzT[] = {
/* columns rows colors chars-per-pixel */
"32 32 3 1 ",
"  c #6F6464",
". c #9D9292",
"X c #D4C7C7",
/* pixels */
"                                ",
" .............................. ",
" .............................. ",
" ..................... XX...... ",
" .............................. ",
" ............. ................ ",
" ...X X...... X................ ",
" ..... .....  X................ ",
" ..... ..... X................. ",
" .....XX.... X...........X..... ",
" ...........X....X.......XX.... ",
" ...........X....X........X ... ",
" ................X........ XX.. ",
" .................X   ...... X. ",
" .........X......XXXXX.......X. ",
" ......XXX.......X. XX.......X. ",
" .....X..........XXXXX........X ",
" .............................. ",
" .............................. ",
" .............................. ",
" ........  XXXX................ ",
" ....... XX.................... ",
" .......X...................... ",
" .....XX....................... ",
" .............................. ",
" .............................. ",
" ...............XX     ..... .. ",
" X...............  ........ X.. ",
" XX.........................X.. ",
" .  XX......................... ",
" .............................. ",
"                                "
};
